# xmcd
#
# Track frame offsets: 
#        150
#        14626
#        48602
#        68553
#        82954
#        108830
#        124356
#        149857
#
# Disc length: 2193 seconds
#
# Revision: 0
# Processed by: cddbd v1.5.2PL0 Copyright (c) Steve Scherf et al.
# Submitted via: ExactAudioCopyFreeDBPlugin 1.0
#
DISCID=73088f08
DTITLE=Tadeusz Nalepa - Poznań - Giełda - Live
DYEAR=1985
DGENRE=Blues
TTITLE0=Nauczyłem się niewiary
TTITLE1=Jedź ostrożnie nie popędzaj kół
TTITLE2=To mój blues
TTITLE3=Nie uciekaj, dokąd uciec chcesz
TTITLE4=Musisz walczyć, musisz wierzyć
TTITLE5=Święty Boże nie pomoże
TTITLE6=Kamienie
TTITLE7=Zasady gry
EXTD=
EXTT0=
EXTT1=
EXTT2=
EXTT3=
EXTT4=
EXTT5=
EXTT6=
EXTT7=
PLAYORDER=
